<svg width="35" height="36" viewBox="0 0 35 36" fill="none" xmlns="http://www.w3.org/2000/svg">
<path d="M17.912 14.712V21.614H27.496C26.604 26 22.87 28.52 17.912 28.52C12.1371 28.4405 7.4973 23.7364 7.4973 17.961C7.4973 12.1855 12.1371 7.48144 17.912 7.40196C20.3124 7.39908 22.6389 8.23211 24.492 9.75796L29.692 4.55796C23.7272 -0.685905 15.016 -1.36037 8.3151 2.90285C1.6142 7.16606 -1.46597 15.3424 0.75648 22.9672C2.97893 30.592 9.96988 35.8328 17.912 35.828C26.846 35.828 34.97 29.33 34.97 17.96C34.9562 16.8652 34.8221 15.7754 34.57 14.71L17.912 14.712Z" fill="#42526E"/>
</svg>
