<svg width="18" height="18" viewBox="0 0 18 18" fill="none" xmlns="http://www.w3.org/2000/svg">
<path d="M8.95572 7.35601V10.807H13.7477C13.3017 13 11.4347 14.26 8.95572 14.26C6.06826 14.2203 3.74838 11.8682 3.74838 8.98051C3.74838 6.09278 6.06826 3.74075 8.95572 3.70101C10.1559 3.69957 11.3192 4.11608 12.2457 4.87901L14.8457 2.27901C11.8633 -0.342922 7.50772 -0.680155 4.15727 1.45145C0.806827 3.58306 -0.733259 7.67122 0.377966 11.4836C1.48919 15.296 4.98466 17.9164 8.95572 17.914C13.4227 17.914 17.4847 14.665 17.4847 8.98001C17.4778 8.43265 17.4108 7.88771 17.2847 7.35501L8.95572 7.35601Z" fill="#0052CC"/>
</svg>
