<svg width="36" height="41" viewBox="0 0 36 41" fill="none" xmlns="http://www.w3.org/2000/svg">
<path fill-rule="evenodd" clip-rule="evenodd" d="M29.4675 8H27V5.5C27 2.74213 24.9829 0.5 22.5 0.5H13.5C11.0171 0.5 9 2.74213 9 5.5V8H6.53247C2.92456 8 0 11.25 0 15.2578V33.2422C0 37.25 2.92456 40.5 6.53247 40.5H29.4675C33.0754 40.5 36 37.25 36 33.2422V15.2578C36 11.25 33.0754 8 29.4675 8ZM13.5 5.5H22.5V8H13.5V5.5ZM29.4675 35.5C30.5859 35.5 31.5 34.4844 31.5 33.2422V15.2578C31.5 14.0156 30.5859 13 29.4675 13H6.53247C5.41406 13 4.5 14.0156 4.5 15.2578V33.2422C4.5 34.4844 5.41406 35.5 6.53247 35.5H29.4675Z" fill="#0052CC"/>
</svg>
