<svg width="40" height="40" viewBox="0 0 40 40" fill="none" xmlns="http://www.w3.org/2000/svg">
<path d="M22.2222 40H13.3333V13.3333H22.2222V17.7778C24.117 15.3672 26.9903 13.9302 30.0556 13.86C35.568 13.8906 40.016 18.3764 40 23.8889V40H31.1111V25C30.7556 22.517 28.6261 20.6746 26.1178 20.68C25.0206 20.7147 23.985 21.1951 23.2499 22.0103C22.5147 22.8255 22.1437 23.9051 22.2222 25V40ZM8.88889 40H0V13.3333H8.88889V40ZM4.44444 8.88889C1.98985 8.88889 0 6.89904 0 4.44444C0 1.98985 1.98985 0 4.44444 0C6.89904 0 8.88889 1.98985 8.88889 4.44444C8.88889 5.62318 8.42064 6.75365 7.58714 7.58714C6.75365 8.42064 5.62318 8.88889 4.44444 8.88889Z" fill="#42526E"/>
</svg>
