<svg width="35" height="36" viewBox="0 0 35 36" fill="none" xmlns="http://www.w3.org/2000/svg">
<path d="M17.9124 14.712V21.614H27.4964C26.6044 26 22.8704 28.52 17.9124 28.52C12.1375 28.4405 7.49773 23.7364 7.49773 17.961C7.49773 12.1855 12.1375 7.48144 17.9124 7.40196C20.3128 7.39908 22.6394 8.23211 24.4924 9.75796L29.6924 4.55796C23.7276 -0.685905 15.0164 -1.36037 8.31553 2.90285C1.61463 7.16606 -1.46554 15.3424 0.756908 22.9672C2.97936 30.592 9.97031 35.8328 17.9124 35.828C26.8464 35.828 34.9704 29.33 34.9704 17.96C34.9566 16.8652 34.8225 15.7754 34.5704 14.71L17.9124 14.712Z" fill="#42526E"/>
</svg>
