<svg width="20" height="20" viewBox="0 0 20 20" fill="none" xmlns="http://www.w3.org/2000/svg">
<path d="M15.8309 16.6666C8.72123 16.6767 3.32541 11.2162 3.33302 4.16875C3.33302 3.70852 3.70611 3.33333 4.16635 3.33333H6.36581C6.77879 3.33333 7.12962 3.63677 7.19026 4.04527C7.3356 5.02433 7.62065 5.97747 8.03675 6.87558L8.12238 7.06042C8.24145 7.31742 8.16074 7.62278 7.93024 7.78739C7.24909 8.27382 6.98878 9.25296 7.51942 10.017C8.18532 10.9757 9.02472 11.8149 9.98323 12.4805C10.7472 13.011 11.7262 12.7507 12.2126 12.0697C12.3773 11.8391 12.6828 11.7583 12.94 11.8774L13.124 11.9627C14.0222 12.3787 14.9754 12.6638 15.9545 12.8091C16.363 12.8698 16.6663 13.2206 16.6663 13.6335V15.8333C16.6663 16.2935 16.2923 16.6666 15.8321 16.6666L15.8309 16.6666Z" fill="#0052CC"/>
</svg>
