<svg width="251" height="37" viewBox="0 0 251 37" fill="none" xmlns="http://www.w3.org/2000/svg">
<path d="M0 34.4592V13.6711H12.9074V16.3711H3.14047V22.705H11.9826V25.3949H3.14047V34.4592H0Z" fill="#0052CC"/>
<path d="M16.33 34.4592V18.8681H19.2672V21.3448H19.4298C19.7143 20.5057 20.2157 19.846 20.9339 19.3655C21.6589 18.8783 22.4788 18.6347 23.3935 18.6347C23.5832 18.6347 23.8068 18.6414 24.0643 18.655C24.3285 18.6685 24.5352 18.6854 24.6842 18.7057V21.6087C24.5623 21.5749 24.3454 21.5377 24.0338 21.4971C23.7221 21.4497 23.4104 21.426 23.0987 21.426C22.3805 21.426 21.7402 21.5783 21.1779 21.8828C20.6223 22.1806 20.1819 22.5967 19.8566 23.1313C19.5314 23.6591 19.3688 24.2614 19.3688 24.9381V34.4592H16.33Z" fill="#0052CC"/>
<path d="M31.7172 34.8043C30.728 34.8043 29.8336 34.6216 29.0341 34.2562C28.2346 33.884 27.6011 33.3461 27.1336 32.6423C26.6728 31.9385 26.4425 31.0757 26.4425 30.0539C26.4425 29.1742 26.6119 28.4502 26.9506 27.8817C27.2894 27.3133 27.7468 26.8633 28.3227 26.5317C28.8986 26.2001 29.5423 25.9498 30.2537 25.7806C30.9652 25.6114 31.6901 25.4828 32.4287 25.3949C33.3637 25.2866 34.1226 25.1986 34.7053 25.131C35.288 25.0565 35.7114 24.9381 35.9757 24.7757C36.2399 24.6133 36.3721 24.3494 36.3721 23.984V23.9129C36.3721 23.0264 36.1214 22.3396 35.62 21.8524C35.1254 21.3651 34.3868 21.1215 33.4044 21.1215C32.3813 21.1215 31.575 21.3482 30.9855 21.8016C30.4028 22.2482 29.9996 22.7456 29.7761 23.2937L26.9202 22.6441C27.2589 21.6967 27.7535 20.932 28.404 20.3501C29.0612 19.7614 29.8167 19.335 30.6704 19.0711C31.5241 18.8005 32.4219 18.6651 33.3637 18.6651C33.9871 18.6651 34.6477 18.7396 35.3456 18.8884C36.0502 19.0305 36.7075 19.2944 37.3173 19.6802C37.9338 20.0659 38.4386 20.6174 38.8316 21.3347C39.2246 22.0452 39.4211 22.9689 39.4211 24.1058V34.4592H36.4534V32.3276H36.3314C36.1349 32.7201 35.8402 33.1058 35.4472 33.4848C35.0542 33.8637 34.5494 34.1784 33.9329 34.4288C33.3163 34.6792 32.5777 34.8043 31.7172 34.8043ZM32.3779 32.3682C33.218 32.3682 33.9362 32.2024 34.5325 31.8709C35.1355 31.5393 35.5929 31.1062 35.9045 30.5716C36.223 30.0302 36.3822 29.4517 36.3822 28.8359V26.8261C36.2738 26.9344 36.0638 27.0359 35.7521 27.1306C35.4472 27.2186 35.0983 27.2964 34.7053 27.3641C34.3123 27.425 33.9295 27.4825 33.5568 27.5366C33.1842 27.584 32.8725 27.6246 32.6218 27.6584C32.0323 27.7329 31.4937 27.858 31.0058 28.034C30.5248 28.2099 30.1385 28.4637 29.8472 28.7953C29.5626 29.1201 29.4203 29.5532 29.4203 30.0945C29.4203 30.8457 29.6981 31.4141 30.2537 31.7998C30.8093 32.1788 31.5174 32.3682 32.3779 32.3682Z" fill="#0052CC"/>
<path d="M46.5075 25.202V34.4592H43.4686V18.8681H46.3855V21.4057H46.5786C46.9377 20.5802 47.5001 19.917 48.2657 19.4162C49.0381 18.9155 50.0104 18.6651 51.1826 18.6651C52.2464 18.6651 53.178 18.8884 53.9775 19.335C54.777 19.7749 55.397 20.4313 55.8374 21.3042C56.2778 22.1772 56.498 23.2565 56.498 24.5422V34.4592H53.4592V24.9076C53.4592 23.7776 53.1644 22.8945 52.575 22.2584C51.9855 21.6155 51.1758 21.2941 50.1459 21.2941C49.4413 21.2941 48.8145 21.4463 48.2657 21.7509C47.7237 22.0554 47.2934 22.502 46.975 23.0907C46.6633 23.6727 46.5075 24.3764 46.5075 25.202Z" fill="#0052CC"/>
<path d="M67.1492 34.7739C65.6383 34.7739 64.3373 34.4322 63.2465 33.7487C62.1624 33.0585 61.329 32.1077 60.7463 30.8964C60.1636 29.6851 59.8722 28.2979 59.8722 26.7347C59.8722 25.1513 60.1704 23.7539 60.7666 22.5426C61.3629 21.3245 62.203 20.3738 63.2871 19.6903C64.3712 19.0068 65.6484 18.6651 67.1187 18.6651C68.3044 18.6651 69.3614 18.885 70.2897 19.3249C71.2179 19.758 71.9666 20.367 72.5358 21.152C73.1117 21.9369 73.4539 22.8539 73.5623 23.9028H70.6047C70.4421 23.1719 70.0695 22.5426 69.4868 22.0148C68.9108 21.4869 68.1384 21.223 67.1695 21.223C66.3226 21.223 65.5807 21.4463 64.9438 21.893C64.3136 22.3328 63.8224 22.9621 63.4701 23.7809C63.1177 24.593 62.9416 25.5539 62.9416 26.6637C62.9416 27.8005 63.1144 28.7817 63.4599 29.6073C63.8055 30.4329 64.2933 31.0724 64.9234 31.5257C65.5603 31.9791 66.309 32.2058 67.1695 32.2058C67.7455 32.2058 68.2672 32.1009 68.7347 31.8912C69.209 31.6746 69.6053 31.3667 69.9238 30.9675C70.249 30.5682 70.476 30.0878 70.6047 29.5261H73.5623C73.4539 30.5344 73.1253 31.4344 72.5764 32.2261C72.0276 33.0179 71.2925 33.6404 70.371 34.0938C69.4563 34.5472 68.3824 34.7739 67.1492 34.7739Z" fill="#0052CC"/>
<path d="M83.3877 34.7739C81.9242 34.7739 80.647 34.4389 79.5561 33.769C78.4652 33.0991 77.6183 32.1618 77.0153 30.9573C76.4122 29.7528 76.1107 28.3453 76.1107 26.7347C76.1107 25.1174 76.4122 23.7031 77.0153 22.4918C77.6183 21.2806 78.4652 20.3399 79.5561 19.67C80.647 19.0001 81.9242 18.6651 83.3877 18.6651C84.8512 18.6651 86.1284 19.0001 87.2193 19.67C88.3101 20.3399 89.1571 21.2806 89.7601 22.4918C90.3631 23.7031 90.6646 25.1174 90.6646 26.7347C90.6646 28.3453 90.3631 29.7528 89.7601 30.9573C89.1571 32.1618 88.3101 33.0991 87.2193 33.769C86.1284 34.4389 84.8512 34.7739 83.3877 34.7739ZM83.3978 32.2261C84.3464 32.2261 85.1324 31.9758 85.7557 31.475C86.3791 30.9742 86.8398 30.3077 87.138 29.4754C87.4429 28.643 87.5953 27.7261 87.5953 26.7246C87.5953 25.7298 87.4429 24.8163 87.138 23.984C86.8398 23.1449 86.3791 22.4715 85.7557 21.964C85.1324 21.4565 84.3464 21.2027 83.3978 21.2027C82.4425 21.2027 81.6498 21.4565 81.0196 21.964C80.3963 22.4715 79.9321 23.1449 79.6272 23.984C79.3291 24.8163 79.1801 25.7298 79.1801 26.7246C79.1801 27.7261 79.3291 28.643 79.6272 29.4754C79.9321 30.3077 80.3963 30.9742 81.0196 31.475C81.6498 31.9758 82.4425 32.2261 83.3978 32.2261Z" fill="#0052CC"/>
<path d="M113.227 19.132C113.119 18.1711 112.672 17.4268 111.886 16.8989C111.1 16.3643 110.11 16.097 108.918 16.097C108.064 16.097 107.326 16.2324 106.702 16.5031C106.079 16.767 105.595 17.1324 105.249 17.5993C104.91 18.0595 104.741 18.5839 104.741 19.1726C104.741 19.6666 104.856 20.0929 105.086 20.4516C105.324 20.8102 105.632 21.1114 106.011 21.355C106.397 21.5918 106.811 21.7915 107.251 21.9539C107.692 22.1095 108.115 22.2381 108.522 22.3396L110.554 22.8674C111.218 23.0298 111.899 23.2497 112.597 23.5272C113.295 23.8046 113.942 24.17 114.538 24.6234C115.135 25.0768 115.616 25.6385 115.982 26.3084C116.354 26.9783 116.541 27.7802 116.541 28.7141C116.541 29.8915 116.236 30.937 115.626 31.8506C115.023 32.7641 114.145 33.4848 112.993 34.0126C111.848 34.5404 110.463 34.8043 108.837 34.8043C107.278 34.8043 105.93 34.5574 104.792 34.0634C103.653 33.5694 102.762 32.869 102.119 31.9622C101.475 31.0487 101.119 29.966 101.052 28.7141H104.202C104.263 29.4652 104.507 30.0911 104.934 30.5919C105.368 31.0859 105.92 31.4547 106.591 31.6983C107.268 31.9351 108.01 32.0536 108.816 32.0536C109.704 32.0536 110.493 31.9148 111.184 31.6374C111.882 31.3532 112.431 30.9607 112.831 30.4599C113.231 29.9524 113.431 29.3603 113.431 28.6836C113.431 28.0678 113.254 27.5637 112.902 27.1712C112.556 26.7787 112.086 26.4539 111.489 26.1968C110.9 25.9396 110.232 25.7129 109.487 25.5167L107.028 24.8467C105.361 24.3934 104.04 23.7268 103.064 22.8471C102.095 21.9674 101.611 20.8035 101.611 19.3553C101.611 18.1576 101.936 17.1121 102.586 16.2189C103.237 15.3256 104.118 14.632 105.229 14.138C106.34 13.6373 107.593 13.3869 108.989 13.3869C110.398 13.3869 111.642 13.6339 112.719 14.1279C113.803 14.6218 114.657 15.3019 115.28 16.1681C115.904 17.0275 116.229 18.0155 116.256 19.132H113.227Z" fill="#0052CC"/>
<path d="M124.592 34.8043C123.603 34.8043 122.709 34.6216 121.909 34.2562C121.11 33.884 120.476 33.3461 120.009 32.6423C119.548 31.9385 119.318 31.0757 119.318 30.0539C119.318 29.1742 119.487 28.4502 119.826 27.8817C120.165 27.3133 120.622 26.8633 121.198 26.5317C121.774 26.2001 122.417 25.9498 123.129 25.7806C123.84 25.6114 124.565 25.4828 125.304 25.3949C126.239 25.2866 126.998 25.1986 127.58 25.131C128.163 25.0565 128.587 24.9381 128.851 24.7757C129.115 24.6133 129.247 24.3494 129.247 23.984V23.9129C129.247 23.0264 128.997 22.3396 128.495 21.8524C128.001 21.3651 127.262 21.1215 126.28 21.1215C125.256 21.1215 124.45 21.3482 123.861 21.8016C123.278 22.2482 122.875 22.7456 122.651 23.2937L119.795 22.6441C120.134 21.6967 120.629 20.932 121.279 20.3501C121.936 19.7614 122.692 19.335 123.546 19.0711C124.399 18.8005 125.297 18.6651 126.239 18.6651C126.862 18.6651 127.523 18.7396 128.221 18.8884C128.925 19.0305 129.583 19.2944 130.192 19.6802C130.809 20.0659 131.314 20.6174 131.707 21.3347C132.1 22.0452 132.296 22.9689 132.296 24.1058V34.4592H129.329V32.3276H129.207C129.01 32.7201 128.715 33.1058 128.322 33.4848C127.929 33.8637 127.425 34.1784 126.808 34.4288C126.191 34.6792 125.453 34.8043 124.592 34.8043ZM125.253 32.3682C126.093 32.3682 126.811 32.2024 127.408 31.8709C128.011 31.5393 128.468 31.1062 128.78 30.5716C129.098 30.0302 129.257 29.4517 129.257 28.8359V26.8261C129.149 26.9344 128.939 27.0359 128.627 27.1306C128.322 27.2186 127.973 27.2964 127.58 27.3641C127.187 27.425 126.805 27.4825 126.432 27.5366C126.059 27.584 125.748 27.6246 125.497 27.6584C124.907 27.7329 124.369 27.858 123.881 28.034C123.4 28.2099 123.014 28.4637 122.722 28.7953C122.438 29.1201 122.296 29.5532 122.296 30.0945C122.296 30.8457 122.573 31.4141 123.129 31.7998C123.684 32.1788 124.393 32.3682 125.253 32.3682Z" fill="#0052CC"/>
<path d="M136.344 34.4592V18.8681H139.281V21.3448H139.444C139.728 20.5057 140.23 19.846 140.948 19.3655C141.673 18.8783 142.493 18.6347 143.407 18.6347C143.597 18.6347 143.821 18.6414 144.078 18.655C144.342 18.6685 144.549 18.6854 144.698 18.7057V21.6087C144.576 21.5749 144.359 21.5377 144.048 21.4971C143.736 21.4497 143.424 21.426 143.113 21.426C142.394 21.426 141.754 21.5783 141.192 21.8828C140.636 22.1806 140.196 22.5967 139.87 23.1313C139.545 23.6591 139.383 24.2614 139.383 24.9381V34.4592H136.344Z" fill="#0052CC"/>
<path d="M155.537 18.8681V21.3042H147.01V18.8681H155.537ZM149.297 15.1328H152.336V29.8814C152.336 30.4701 152.424 30.9133 152.6 31.2111C152.776 31.5021 153.003 31.7017 153.281 31.81C153.566 31.9115 153.874 31.9622 154.206 31.9622C154.45 31.9622 154.663 31.9453 154.846 31.9115C155.029 31.8776 155.171 31.8506 155.273 31.8303L155.822 34.3374C155.646 34.4051 155.395 34.4728 155.07 34.5404C154.745 34.6149 154.338 34.6555 153.85 34.6622C153.051 34.6758 152.305 34.5337 151.614 34.2359C150.923 33.9382 150.364 33.478 149.937 32.8555C149.51 32.2329 149.297 31.4513 149.297 30.5107V15.1328Z" fill="#0052CC"/>
<path d="M165.307 34.7739C163.843 34.7739 162.566 34.4389 161.475 33.769C160.384 33.0991 159.537 32.1618 158.934 30.9573C158.331 29.7528 158.03 28.3453 158.03 26.7347C158.03 25.1174 158.331 23.7031 158.934 22.4918C159.537 21.2806 160.384 20.3399 161.475 19.67C162.566 19.0001 163.843 18.6651 165.307 18.6651C166.77 18.6651 168.047 19.0001 169.138 19.67C170.229 20.3399 171.076 21.2806 171.679 22.4918C172.282 23.7031 172.584 25.1174 172.584 26.7347C172.584 28.3453 172.282 29.7528 171.679 30.9573C171.076 32.1618 170.229 33.0991 169.138 33.769C168.047 34.4389 166.77 34.7739 165.307 34.7739ZM165.317 32.2261C166.266 32.2261 167.051 31.9758 167.675 31.475C168.298 30.9742 168.759 30.3077 169.057 29.4754C169.362 28.643 169.514 27.7261 169.514 26.7246C169.514 25.7298 169.362 24.8163 169.057 23.984C168.759 23.1449 168.298 22.4715 167.675 21.964C167.051 21.4565 166.266 21.2027 165.317 21.2027C164.362 21.2027 163.569 21.4565 162.939 21.964C162.315 22.4715 161.851 23.1449 161.546 23.984C161.248 24.8163 161.099 25.7298 161.099 26.7246C161.099 27.7261 161.248 28.643 161.546 29.4754C161.851 30.3077 162.315 30.9742 162.939 31.475C163.569 31.9758 164.362 32.2261 165.317 32.2261Z" fill="#0052CC"/>
<path d="M175.976 34.4592V18.8681H178.913V21.3448H179.076C179.36 20.5057 179.862 19.846 180.58 19.3655C181.305 18.8783 182.125 18.6347 183.039 18.6347C183.229 18.6347 183.453 18.6414 183.71 18.655C183.974 18.6685 184.181 18.6854 184.33 18.7057V21.6087C184.208 21.5749 183.991 21.5377 183.68 21.4971C183.368 21.4497 183.056 21.426 182.745 21.426C182.026 21.426 181.386 21.5783 180.824 21.8828C180.268 22.1806 179.828 22.5967 179.502 23.1313C179.177 23.6591 179.015 24.2614 179.015 24.9381V34.4592H175.976Z" fill="#0052CC"/>
<path d="M186.96 34.4592V18.8681H189.999V34.4592H186.96ZM188.494 16.4625C187.966 16.4625 187.512 16.2865 187.133 15.9346C186.76 15.576 186.574 15.1497 186.574 14.6557C186.574 14.1549 186.76 13.7286 187.133 13.3767C187.512 13.0181 187.966 12.8388 188.494 12.8388C189.023 12.8388 189.473 13.0181 189.846 13.3767C190.226 13.7286 190.415 14.1549 190.415 14.6557C190.415 15.1497 190.226 15.576 189.846 15.9346C189.473 16.2865 189.023 16.4625 188.494 16.4625Z" fill="#0052CC"/>
<path d="M213.953 16.8957H222.386C227.654 16.8957 231.924 21.1605 231.924 26.4214V37H213.953V16.8957Z" fill="url(#paint0_linear_64_23)"/>
<path d="M231.924 9.52574C231.924 4.26482 236.195 0 241.462 0H251V37H231.924V9.52574Z" fill="url(#paint1_linear_64_23)"/>
<defs>
<linearGradient id="paint0_linear_64_23" x1="125.5" y1="0" x2="125.5" y2="37" gradientUnits="userSpaceOnUse">
<stop stop-color="#0052CC" stop-opacity="0.25"/>
<stop offset="0.78125" stop-color="#0052CC"/>
</linearGradient>
<linearGradient id="paint1_linear_64_23" x1="241.462" y1="0" x2="241.462" y2="37" gradientUnits="userSpaceOnUse">
<stop offset="0.364583" stop-color="#0052CC"/>
<stop offset="1" stop-color="#0052CC" stop-opacity="0.25"/>
</linearGradient>
</defs>
</svg>
